<?xml version="1.0" encoding="UTF-8"?>
<svg width="1011px" height="626px" viewBox="0 0 1011 626" version="1.1" xmlns="http://www.w3.org/2000/svg" xmlns:xlink="http://www.w3.org/1999/xlink">
    <!-- Generator: Sketch 54.1 (76490) - https://sketchapp.com -->
    <title>undraw_design_sprint_x3eb</title>
    <desc>Created with Sketch.</desc>
    <g id="🕶-Persona" stroke="none" stroke-width="1" fill="none" fill-rule="evenodd">
        <g id="undraw_design_sprint_x3eb" fill-rule="nonzero">
            <rect id="Rectangle" fill="#F1F1F1" transform="translate(506.235396, 282.225956) rotate(16.714100) translate(-506.235396, -282.225956) " x="239.235396" y="67.7259562" width="534" height="429"></rect>
            <ellipse id="Oval" fill="#3F3D56" cx="245" cy="599.33763" rx="245" ry="26"></ellipse>
            <rect id="Rectangle" fill="#2F2E41" x="208.26894" y="68.5657" width="59.47284" height="86.67224"></rect>
            <path d="M219.7625,108.54686 C219.7625,108.54686 222,151.33762 202.21428,153.09234 C188.37093,154.32005 229.21155,192.23834 229.21155,192.23834 L264.308,143.6433 C264.308,143.6433 238,146.33762 254.859,116.64603 L219.7625,108.54686 Z" id="Path" fill="#FFB8B8"></path>
            <path d="M264.31,143.64762 L253.22,159.00762 L229.21,192.23762 C229.21,192.23762 209.16,173.61762 201.92,162.05762 C199.2,157.70762 198.28005,154.35762 200.92,153.36762 C200.93174,153.359681 200.945905,153.356139 200.96,153.35762 C201.339084,153.215673 201.736363,153.128136 202.14,153.09762 C202.163009,153.092315 202.186426,153.08897 202.21,153.08762 C203.362977,152.990723 204.497036,152.734971 205.58,152.32762 C221.74,146.28762 219.76,108.54762 219.76,108.54762 L254.86,116.64762 C243.61,136.45762 251.58,141.85762 258.13,143.24762 C259.56751,143.547398 261.031577,143.70151 262.5,143.70762 C263.61,143.71763 264.31,143.64762 264.31,143.64762 Z" id="Path" fill="#000000" opacity="0.1"></path>
            <path d="M274.62654,73.40262 C268.20076,92.42773 258.34768,109.76246 238.26669,109.76246 C218.1857,109.76246 203.0383,93.4517 201.90684,73.40262 C200.46107,47.78388 217.72247,36.93662 238.26669,37.04277 C262.53636,37.16812 282.2524,50.82443 274.62654,73.40262 Z" id="Path" fill="#2F2E41"></path>
            <path d="M188.71565,382.56907 L198.16465,448.71237 C198.16465,448.71237 190.06548,489.20826 194.11506,517.55537 L198.16465,547.25237 L217.06274,547.25237 L222.46219,516.20552 C222.46219,516.20552 227.86164,483.8088 227.86164,468.96031 C227.86164,468.96031 242.71014,401.46715 233.2611,387.96852 L188.71565,382.56907 Z" id="Path" fill="#FFB8B8"></path>
            <path d="M303.454,378.51948 L294.005,448.71237 C294.005,448.71237 302.10418,489.20826 298.05459,517.55537 L294.005,547.25237 L275.10689,547.25237 L269.70744,516.20552 C269.70744,516.20552 264.308,483.80881 264.308,468.96032 C264.308,468.96032 249.4595,397.41757 258.90855,383.91894 L303.454,378.51948 Z" id="Path" fill="#FFB8B8"></path>
            <path d="M284.55594,543.20281 C284.55594,543.20281 295.35484,539.15322 296.7047,544.55267 C298.05456,549.95212 300.75429,578.29925 300.75429,578.29925 C300.75429,578.29925 308.85347,590.44802 314.25292,591.79788 C319.65237,593.14774 331.80115,610.69597 316.95265,612.04583 C302.10415,613.39569 287.25565,607.99624 287.25565,605.29651 C287.25565,602.59678 281.8562,601.24692 279.15647,601.24692 C276.45674,601.24692 267.0077,597.19733 268.35757,593.14775 C269.70744,589.09817 273.75702,541.85295 273.75702,541.85295 L284.55594,543.20281 Z" id="Path" fill="#2F2E41"></path>
            <path d="M207.61374,543.20281 C207.61374,543.20281 196.81483,539.15322 195.46497,544.55267 C194.11511,549.95212 191.41538,578.29925 191.41538,578.29925 C191.41538,578.29925 183.3162,590.44802 177.91675,591.79788 C172.5173,593.14774 160.36853,610.69595 175.217,612.04581 C190.06547,613.39567 204.914,607.99622 204.914,605.29649 C204.914,602.59676 210.31345,601.2469 213.01318,601.2469 C215.71291,601.2469 225.16195,597.19731 223.81208,593.14773 C222.46221,589.09815 218.41263,541.85293 218.41263,541.85293 L207.61374,543.20281 Z" id="Path" fill="#2F2E41"></path>
            <circle id="Oval" fill="#FFB8B8" cx="240.01045" cy="96.39809" r="27.98955"></circle>
            <path d="M345.3,250.27763 C345.3,250.27763 288.61,274.57763 283.21,248.92763 C279.889596,232.897771 277.63466,216.665571 276.46,200.33763 C276.454606,200.332199 276.447581,200.328687 276.44,200.32763 C275.65,199.84763 247.72,182.70763 253.22,159.00763 C254.500207,153.87391 256.904786,149.088663 260.26,144.99763 C260.26,144.99763 261.09,144.45763 262.5,143.70763 C264.152911,142.824824 265.859599,142.046627 267.61,141.37763 C277.14,137.74763 292.99,135.69763 296.7,159.83763 C302.1,194.93763 302.1,232.73763 302.1,232.73763 C302.1,232.73763 318.3,242.18763 339.9,232.73763 C361.5,223.28763 383.1,228.68763 384.45,240.83763 C385.8,252.97764 345.3,250.27763 345.3,250.27763 Z" id="Path" fill="#FFB8B8"></path>
            <path d="M202.21,153.08762 L201.92,162.05762 L198.7,263.17762 L198.16,279.97767 L150.92,332.62767 C150.92,332.62767 141.47,360.96767 121.22,365.01767 C100.97,369.06767 134.72,325.87767 134.72,325.87767 L180.62,258.37767 L180.69,256.10767 C181.207039,237.195228 179.63079,218.283614 175.99,199.71772 C174.642704,192.807116 174.382907,185.728495 175.22,178.73772 C177.1,163.67772 189.49,157.14772 196.81,154.57772 C198.155444,154.095233 199.52775,153.69122 200.92,153.36772 C200.93174,153.359781 200.945905,153.356239 200.96,153.35772 C201.57,153.20772 201.98,153.12772 202.14,153.09772 C202.163006,153.092381 202.186423,153.089002 202.21,153.08762 L202.21,153.08762 Z" id="Path" fill="#FFB8B8"></path>
            <path d="M277.81,250.27763 L277.81,255.67763 C258.13,279.72768 214.57,268.36763 198.7,263.17763 C194.97,261.95763 192.77,261.07763 192.77,261.07763 C193.577825,259.386465 194.036944,257.549987 194.12,255.67763 L194.12,243.53764 C194.12,239.48764 195.46,242.18764 196.81,240.83764 C198.16,239.48764 192.77,231.38764 192.77,231.38764 C179.27,223.28764 187.37,200.33764 187.37,200.33764 L196.81,180.08764 L196.81,154.57764 C198.155444,154.095153 199.52775,153.69114 200.92,153.36764 C200.93174,153.359701 200.945905,153.356159 200.96,153.35764 C201.339084,153.215693 201.736363,153.128156 202.14,153.09764 C202.163009,153.092335 202.186426,153.08899 202.21,153.08764 C203.362977,152.990743 204.497036,152.734991 205.58,152.32764 C208.11,157.54764 213.61,164.41764 225.15995,165.23764 C238.98995,166.22764 252.09995,151.31764 258.12995,143.24764 C259.56746,143.547418 261.031527,143.70153 262.49995,143.70764 C264.152861,142.824834 265.859549,142.046637 267.60995,141.37764 L261.60995,166.58764 C256.29995,179.85764 275.76995,199.63764 276.43995,200.32764 C276.447531,200.328697 276.454556,200.332209 276.45995,200.33764 L276.45995,215.18764 L275.10995,231.38764 L273.75995,235.43764 L276.45995,239.48764 L275.10995,243.53764 L276.45995,246.23764 C277.81,248.92759 277.81,247.58762 277.81,250.27763 Z" id="Path" fill="#D0CDE1"></path>
            <path d="M195.465,259.73153 L191.41541,258.38166 C191.41541,258.38166 142.8203,379.86935 175.217,385.26881 C207.6137,390.66827 231.91125,400.11731 237.31071,390.66826 C242.71017,381.21921 240.01043,347.47264 240.01043,347.47264 L245.40988,346.12278 C245.40988,346.12278 235.96088,396.06772 254.85893,392.01813 C273.75698,387.96854 326.40167,381.21922 326.40167,375.81977 C326.40167,370.42032 277.8066,253.80596 277.8066,253.80596 C277.8066,253.80596 257.55867,266.48081 195.465,259.73153 Z" id="Path" fill="#2F2E41"></path>
            <circle id="Oval" fill="#2F2E41" cx="238.26669" cy="30.3449" r="14.35257"></circle>
            <path d="M221.04361,22.6902 C221.044159,15.3195968 226.62729,9.14743914 233.96092,8.4101 C233.48875,8.3632 233.01021,8.33762 232.52566,8.33762 C224.598952,8.33762 218.173085,14.7634867 218.173085,22.690195 C218.173085,30.6169033 224.598952,37.04277 232.52566,37.04277 C233.01021,37.04277 233.48875,37.01719 233.96092,36.97029 C226.627303,36.2329335 221.044183,30.0607922 221.04361,22.6902 L221.04361,22.6902 Z" id="Path" fill="#2F2E41"></path>
            <path d="M226.70923,60.35721 C226.70923,60.35721 226.40954,58.68889 214.68852,63.08427 C202.9675,67.47965 195.94152,99.91566 201.80206,118.96232 C204.16383,126.63805 202.24257,132.17227 199.10682,136.04444 C187.33954,150.57519 191.97182,172.39999 209.11177,179.8722 C209.59557,180.083113 210.089257,180.29161 210.59283,180.49769 L217.91847,184.89307 C217.91847,184.89307 208.57985,172.60542 213.25325,156.88725 C217.311753,143.494762 217.81295,129.276265 214.70751,115.63125 C214.17135,113.32943 213.5623,110.9567 212.87051,108.53531 C207.01,88.02352 209.8603,90.39231 230.37208,69.88053 C230.37208,69.88053 242.09308,78.6713 252.349,83.06668 C262.60492,87.46206 271.39566,91.85745 264.07,106.50868 C256.74434,121.15991 239.16283,134.34611 250.88385,153.39277 C262.60487,172.43943 264.07,165.11377 262.60485,172.43943 L262.60485,172.43943 L261.13973,179.76507 L269.93049,170.97431 L264.06998,182.69531 C264.06998,182.69531 283.11664,182.69531 288.97715,168.04403 L291.90741,170.97429 C291.90741,170.97429 303.62841,150.4625 281.65151,131.41584 C281.65151,131.41584 274.32588,127.02045 284.58177,112.36918 C294.83766,97.71791 286.96101,66.21765 273.77486,60.35718 C260.58871,54.49671 226.70923,60.35721 226.70923,60.35721 Z" id="Path" fill="#2F2E41"></path>
            <path d="M378.93615,288.31358 L418.351,275.96601 C416.169546,259.573972 411.189835,243.678173 403.62889,228.97138 L364.21405,241.31895 C373.46324,255.278102 378.567762,271.572322 378.93615,288.31358 L378.93615,288.31358 Z" id="Path" fill="#6C63FF"></path>
            <rect id="Rectangle" fill="#3F3D56" x="457" y="3.33763" width="554" height="226"></rect>
            <path d="M536.6211,87.47209 L495.31744,87.47209 C492.4988,71.1775239 492.4988,54.5199761 495.31744,38.22541 L536.6211,38.22541 C531.96792,54.3112206 531.96792,71.3862794 536.6211,87.47209 L536.6211,87.47209 Z" id="Path" fill="#FF6584"></path>
            <path d="M572.3789,108.44981 L613.68256,108.44981 C616.5012,92.1552473 616.5012,75.4977027 613.68256,59.20314 L572.3789,59.20314 C577.03208,75.2889472 577.03208,92.3640028 572.3789,108.44981 Z" id="Path" fill="#6C63FF"></path>
            <path d="M664.214,36.20247 C670.997738,70.3837203 672.92897,105.350631 669.95069,140.07104 C669.167723,149.111273 668.04941,158.11347 666.59575,167.07763 C665.9326,171.15291 665.17739,175.20901 664.40138,179.26398 C663.95673,181.58745 663.02387,184.48019 664.48483,186.66717 C667.33052,190.92701 677.08231,189.81531 681.37955,189.95434 C690.31938,190.24358 699.27214,190.29226 708.21517,190.44834 L735.11987,190.91791 L748.07398,191.144 C752.48769,191.221 757.32189,191.90516 761.70078,191.34061 C767.46378,190.59761 766.05987,184.56215 765.97262,180.07812 C765.80014,171.213413 765.563807,162.350257 765.26362,153.48865 C764.0747,118.37161 761.885983,83.3074533 758.69747,48.29618 C758.29059,43.82958 758.54478,38.48572 757.34147,34.16693 C756.855,32.42093 756.37105,31.91609 754.47505,31.60249 C750.13141,30.88404 744.95517,31.64056 740.5605,31.67114 L725.86568,31.7734 L666.10674,32.18926 C665.298528,32.2172615 664.657809,32.8805631 664.657809,33.68926 C664.657809,34.4979569 665.298528,35.1612585 666.10674,35.18926 L715.08948,34.84839 L736.64188,34.69839 L748.39774,34.61658 C750.81387,34.59977 753.0721,33.86817 754.58739,36.52658 C755.54619,38.20868 755.15333,42.41501 755.33582,44.37219 C758.262647,75.76095 760.385667,107.210863 761.70488,138.72193 C762.034493,146.59627 762.313753,154.4725 762.54266,162.35062 C762.63804,165.63308 762.72467,168.91578 762.80255,172.19872 C762.849283,174.168467 762.892863,176.138293 762.93329,178.1082 C762.97499,180.14 763.81589,184.12183 763.0782,185.98809 C761.50504,189.96797 754.4926,188.25601 751.06343,188.19616 L739.10579,187.98746 L715.19051,187.57007 L691.27522,187.15267 C687.32075,187.08367 683.36241,187.05349 679.41053,186.885 C678.0996,186.82911 676.78692,186.76626 675.47782,186.673 C671.57963,186.39543 667.38324,187.31675 666.91976,181.9294 C666.63376,178.60456 668.45198,174.01979 669.01988,170.69394 C669.661213,166.9382 670.243777,163.173087 670.76757,159.3986 C671.747443,152.346847 672.5282,145.271513 673.10984,138.1726 C675.856353,103.803771 673.836214,69.2202212 667.10684,35.40491 C666.73253,33.51266 663.84038,34.31367 664.214,36.20243 L664.214,36.20247 Z" id="Path" fill="#F1F1F1"></path>
            <path d="M861.214,36.20247 C867.997738,70.3837203 869.92897,105.350631 866.95069,140.07104 C866.167723,149.111273 865.04941,158.11347 863.59575,167.07763 C862.9326,171.15291 862.17739,175.20901 861.40138,179.26398 C860.95673,181.58745 860.02387,184.48019 861.48483,186.66717 C864.33052,190.92701 874.08231,189.81531 878.37955,189.95434 C887.31938,190.24358 896.27214,190.29226 905.21517,190.44834 L932.11987,190.91791 L945.07398,191.144 C949.48769,191.221 954.32189,191.90516 958.70078,191.34061 C964.46378,190.59761 963.05987,184.56215 962.97262,180.07812 C962.80014,171.213413 962.563807,162.350257 962.26362,153.48865 C961.0747,118.37161 958.885983,83.3074533 955.69747,48.29618 C955.29059,43.82958 955.54478,38.48572 954.34147,34.16693 C953.855,32.42093 953.37105,31.91609 951.47505,31.60249 C947.13141,30.88404 941.95517,31.64056 937.5605,31.67114 L922.86568,31.7734 L863.10674,32.18926 C862.298528,32.2172615 861.657809,32.8805631 861.657809,33.68926 C861.657809,34.4979569 862.298528,35.1612585 863.10674,35.18926 L912.08948,34.84839 L933.64188,34.69839 L945.39774,34.61658 C947.81387,34.59977 950.0721,33.86817 951.58739,36.52658 C952.54619,38.20868 952.15333,42.41501 952.33582,44.37219 C955.262647,75.76095 957.385667,107.210863 958.70488,138.72193 C959.034487,146.59627 959.313747,154.4725 959.54266,162.35062 C959.63804,165.63308 959.72467,168.91578 959.80255,172.19872 C959.849283,174.168467 959.892863,176.138293 959.93329,178.1082 C959.97499,180.14 960.81589,184.12183 960.0782,185.98809 C958.50504,189.96797 951.4926,188.25601 948.06343,188.19616 L936.10579,187.98746 L912.19051,187.57007 L888.27522,187.15267 C884.32075,187.08367 880.36241,187.05349 876.41053,186.885 C875.0996,186.82911 873.78692,186.76626 872.47782,186.673 C868.57963,186.39543 864.38324,187.31675 863.91976,181.9294 C863.63376,178.60456 865.45198,174.01979 866.01988,170.69394 C866.661213,166.9382 867.243777,163.173087 867.76757,159.3986 C868.747443,152.346847 869.5282,145.271513 870.10984,138.1726 C872.856353,103.803771 870.836214,69.2202212 864.10684,35.40491 C863.73253,33.51266 860.84038,34.31367 861.214,36.20243 L861.214,36.20247 Z" id="Path" fill="#F1F1F1"></path>
            <path d="M678.00787,43.92424 L697.85039,43.92424 C698.658602,43.8962385 699.299321,43.2329369 699.299321,42.42424 C699.299321,41.6155431 698.658602,40.9522415 697.85039,40.92424 L678.00787,40.92424 C677.199658,40.9522415 676.558939,41.6155431 676.558939,42.42424 C676.558939,43.2329369 677.199658,43.8962385 678.00787,43.92424 L678.00787,43.92424 Z" id="Path" fill="#F1F1F1"></path>
            <path d="M678.00653,50.69181 L696.7099,49.98481 C698.63436,49.91207 698.64384,46.91171 696.7099,46.98481 L678.00653,47.69181 C676.08206,47.76455 676.07258,50.76491 678.00653,50.69181 Z" id="Path" fill="#F1F1F1"></path>
            <path d="M678.00787,56.39668 L696.14961,56.39668 C696.957822,56.3686785 697.598541,55.7053769 697.598541,54.89668 C697.598541,54.0879831 696.957822,53.4246815 696.14961,53.39668 L678.00787,53.39668 C677.199658,53.4246815 676.558939,54.0879831 676.558939,54.89668 C676.558939,55.7053769 677.199658,56.3686785 678.00787,56.39668 L678.00787,56.39668 Z" id="Path" fill="#F1F1F1"></path>
            <path d="M738.12681,42.51581 C734.05496,40.39113 730.35904,43.88496 729.7856,47.87666 C729.50521,49.8285 729.4446,52.49621 730.68805,54.15423 C731.95794,55.84747 734.40055,56.55744 736.42882,56.6826 C740.30135,56.9216 744.42165,54.76144 745.37435,50.79583 C746.304291,47.1494094 744.330059,43.3895633 740.80035,42.08483 C738.97235,41.45138 738.18684,44.34838 740.00283,44.97767 C741.732182,45.6966019 742.778374,47.4718095 742.56956,49.33297 C742.324753,51.4740782 740.687133,53.1918186 738.56015,53.53854 C736.08415,54.10805 733.18231,53.49685 732.70355,50.70363 C732.34539,48.61401 733.48018,43.47172 736.61265,45.10624 C738.32238,45.99838 739.84093,43.41024 738.12681,42.51583 L738.12681,42.51581 Z" id="Path" fill="#F1F1F1"></path>
            <path d="M875.00787,43.92424 L894.85039,43.92424 C895.658602,43.8962385 896.299321,43.2329369 896.299321,42.42424 C896.299321,41.6155431 895.658602,40.9522415 894.85039,40.92424 L875.00787,40.92424 C874.199658,40.9522415 873.558939,41.6155431 873.558939,42.42424 C873.558939,43.2329369 874.199658,43.8962385 875.00787,43.92424 L875.00787,43.92424 Z" id="Path" fill="#F1F1F1"></path>
            <path d="M875.00653,50.69181 L893.7099,49.98481 C895.63436,49.91207 895.64384,46.91171 893.7099,46.98481 L875.00653,47.69181 C873.08206,47.76455 873.07258,50.76491 875.00653,50.69181 Z" id="Path" fill="#F1F1F1"></path>
            <path d="M875.00787,56.39668 L893.14961,56.39668 C893.957822,56.3686785 894.598541,55.7053769 894.598541,54.89668 C894.598541,54.0879831 893.957822,53.4246815 893.14961,53.39668 L875.00787,53.39668 C874.199658,53.4246815 873.558939,54.0879831 873.558939,54.89668 C873.558939,55.7053769 874.199658,56.3686785 875.00787,56.39668 L875.00787,56.39668 Z" id="Path" fill="#F1F1F1"></path>
            <path d="M935.12681,42.51581 C931.05496,40.39113 927.35904,43.88496 926.7856,47.87666 C926.50521,49.8285 926.4446,52.49621 927.68805,54.15423 C928.95794,55.84747 931.40055,56.55744 933.42882,56.6826 C937.30135,56.9216 941.42165,54.76144 942.37435,50.79583 C943.304291,47.1494094 941.330059,43.3895633 937.80035,42.08483 C935.97235,41.45138 935.18684,44.34838 937.00283,44.97767 C938.732182,45.6966019 939.778374,47.4718095 939.56956,49.33297 C939.324753,51.4740782 937.687133,53.1918186 935.56015,53.53854 C933.08415,54.10805 930.18231,53.49685 929.70355,50.70363 C929.34539,48.61401 930.48018,43.47172 933.61265,45.10624 C935.32238,45.99838 936.84093,43.41024 935.12681,42.51583 L935.12681,42.51581 Z" id="Path" fill="#F1F1F1"></path>
            <path d="M681.9763,72.84834 C703.80194,73.07784 725.60514,72.4039733 747.3859,70.82674 L745.93948,68.92798 C742.37417,77.96198 742.47236,87.48364 742.94495,97.04039 C743.06335,99.43477 743.81448,102.66363 743.32863,105.03519 C742.71763,108.01762 740.04036,107.30462 737.37776,107.39072 C731.51304,107.580373 725.646947,107.716653 719.77948,107.79956 C714.238273,107.87786 708.69665,107.90871 703.15461,107.89211 C700.546737,107.883937 697.938917,107.865423 695.33115,107.83657 C692.26887,107.80244 688.788,108.69165 687.99721,105.14457 C687.49067,102.87249 688.00072,99.88401 688.00228,97.54738 L688.00799,89.00054 L688.0194,71.90685 C687.991399,71.098638 687.328097,70.4579193 686.5194,70.4579193 C685.710703,70.4579193 685.047401,71.098638 685.0194,71.90685 L685.0054,92.79913 L684.99906,102.29562 C684.9978,104.18192 684.6059,106.46084 685.3102,108.25162 C686.93028,112.37093 693.93096,110.82546 697.28692,110.85635 C704.132347,110.91935 710.97793,110.90896 717.82367,110.82518 C724.668917,110.7423 731.512747,110.58693 738.35516,110.35907 C741.3028,110.26101 745.38181,110.93147 746.27592,107.29602 C746.90277,104.74723 746.17192,101.42402 746.03819,98.82314 C745.88556,95.85504 745.7216,92.88627 745.68177,89.91393 C745.58877,82.9731 746.26887,76.22075 748.83227,69.72546 C748.953827,69.2742328 748.859149,68.7921434 748.575968,68.4204033 C748.292787,68.0486632 747.853156,67.8293485 747.38585,67.8267 C725.616037,69.4036 703.812837,70.0774667 681.97625,69.8483 C681.168038,69.8763015 680.527319,70.5396031 680.527319,71.3483 C680.527319,72.1569969 681.168038,72.8202985 681.97625,72.8483 L681.9763,72.84834 Z" id="Path" fill="#F1F1F1"></path>
            <path d="M688.19643,74.47849 C697.538844,77.7847774 706.647319,81.7181893 715.45969,86.25188 C723.36604,90.33788 733.7166,94.80127 739.15777,102.10408 C740.29813,103.63461 742.90348,102.14051 741.74818,100.58992 C736.19187,93.13256 726.62635,88.74464 718.59145,84.50608 C709.047225,79.4971554 699.156013,75.1792697 688.99395,71.58566 C687.17179,70.93684 686.38756,73.83441 688.19643,74.47849 L688.19643,74.47849 Z" id="Path" fill="#F1F1F1"></path>
            <path d="M746.87586,69.13587 C736.96219,73.37514 728.56328,81.54287 719.70386,87.59487 C710.11428,94.14573 700.239317,100.24219 690.07897,105.88425 C688.39311,106.82565 689.90407,109.41785 691.59313,108.47466 C701.731877,102.813113 711.60684,96.7166533 721.21802,90.18528 C730.07565,84.13443 738.47882,75.96446 748.39002,71.72623 C750.15981,70.96944 748.63319,68.38435 746.87587,69.13582 L746.87586,69.13587 Z" id="Path" fill="#F1F1F1"></path>
            <path d="M878.9763,72.84834 C900.80194,73.07784 922.60514,72.4039733 944.3859,70.82674 L942.93948,68.92798 C939.37417,77.96198 939.47236,87.48364 939.94495,97.04039 C940.06335,99.43477 940.81448,102.66363 940.32863,105.03519 C939.71763,108.01762 937.04036,107.30462 934.37776,107.39072 C928.51304,107.580373 922.646947,107.716653 916.77948,107.79956 C911.238273,107.87786 905.69665,107.90871 900.15461,107.89211 C897.546737,107.883937 894.938917,107.865423 892.33115,107.83657 C889.26887,107.80244 885.788,108.69165 884.99721,105.14457 C884.49067,102.87249 885.00072,99.88401 885.00228,97.54738 L885.00799,89.00054 L885.0194,71.90685 C884.991399,71.098638 884.328097,70.4579193 883.5194,70.4579193 C882.710703,70.4579193 882.047401,71.098638 882.0194,71.90685 L882.0054,92.79913 L881.99906,102.29562 C881.9978,104.18192 881.6059,106.46084 882.3102,108.25162 C883.93028,112.37093 890.93096,110.82546 894.28692,110.85635 C901.132347,110.91935 907.97793,110.90896 914.82367,110.82518 C921.668917,110.7423 928.512747,110.58693 935.35516,110.35907 C938.3028,110.26101 942.38181,110.93147 943.27592,107.29602 C943.90277,104.74723 943.17192,101.42402 943.03819,98.82314 C942.88556,95.85504 942.7216,92.88627 942.68177,89.91393 C942.58877,82.9731 943.26887,76.22075 945.83227,69.72546 C945.953827,69.2742328 945.859149,68.7921434 945.575968,68.4204033 C945.292787,68.0486632 944.853156,67.8293485 944.38585,67.8267 C922.616037,69.4036 900.812837,70.0774667 878.97625,69.8483 C878.168038,69.8763015 877.527319,70.5396031 877.527319,71.3483 C877.527319,72.1569969 878.168038,72.8202985 878.97625,72.8483 L878.9763,72.84834 Z" id="Path" fill="#F1F1F1"></path>
            <path d="M885.19643,74.47849 C894.538844,77.7847774 903.647319,81.7181893 912.45969,86.25188 C920.36604,90.33788 930.7166,94.80127 936.15777,102.10408 C937.29813,103.63461 939.90348,102.14051 938.74818,100.58992 C933.19187,93.13256 923.62635,88.74464 915.59145,84.50608 C906.047225,79.4971554 896.156013,75.1792697 885.99395,71.58566 C884.17179,70.93684 883.38756,73.83441 885.19643,74.47849 L885.19643,74.47849 Z" id="Path" fill="#F1F1F1"></path>
            <path d="M943.87586,69.13587 C933.96219,73.37514 925.56328,81.54287 916.70386,87.59487 C907.11428,94.14573 897.239317,100.24219 887.07897,105.88425 C885.39311,106.82565 886.90407,109.41785 888.59313,108.47466 C898.731877,102.813113 908.60684,96.7166533 918.21802,90.18528 C927.07565,84.13443 935.47882,75.96446 945.39002,71.72623 C947.15981,70.96944 945.63319,68.38435 943.87587,69.13582 L943.87586,69.13587 Z" id="Path" fill="#F1F1F1"></path>
            <path d="M878.9763,132.84834 C900.80194,133.07784 922.60514,132.403973 944.3859,130.82674 L942.93948,128.92798 C939.37417,137.96198 939.47236,147.48364 939.94495,157.04039 C940.06335,159.43477 940.81448,162.66363 940.32863,165.03519 C939.71763,168.01762 937.04036,167.30462 934.37776,167.39072 C928.51304,167.580373 922.646947,167.716653 916.77948,167.79956 C911.238273,167.87786 905.69665,167.90871 900.15461,167.89211 C897.546737,167.883943 894.938917,167.86543 892.33115,167.83657 C889.26887,167.80244 885.788,168.69165 884.99721,165.14457 C884.49067,162.87249 885.00072,159.88401 885.00228,157.54738 L885.00799,149.00054 L885.0194,131.90685 C884.991399,131.098638 884.328097,130.457919 883.5194,130.457919 C882.710703,130.457919 882.047401,131.098638 882.0194,131.90685 L882.0054,152.79913 L881.99906,162.29562 C881.9978,164.18192 881.6059,166.46084 882.3102,168.25162 C883.93028,172.37093 890.93096,170.82546 894.28692,170.85635 C901.132347,170.91935 907.97793,170.90896 914.82367,170.82518 C921.668917,170.7423 928.512747,170.58693 935.35516,170.35907 C938.3028,170.26101 942.38181,170.93147 943.27592,167.29607 C943.90277,164.74728 943.17192,161.42407 943.03819,158.82319 C942.88556,155.85509 942.7216,152.88632 942.68177,149.91398 C942.58877,142.97315 943.26887,136.2208 945.83227,129.72551 C945.953827,129.274283 945.859149,128.792193 945.575968,128.420453 C945.292787,128.048713 944.853156,127.829399 944.38585,127.82675 C922.616037,129.40365 900.812837,130.077517 878.97625,129.84835 C878.168038,129.876351 877.527319,130.539653 877.527319,131.34835 C877.527319,132.157047 878.168038,132.820349 878.97625,132.84835 L878.9763,132.84834 Z" id="Path" fill="#F1F1F1"></path>
            <path d="M885.19643,134.47849 C894.538844,137.784777 903.647319,141.718189 912.45969,146.25188 C920.36604,150.33788 930.7166,154.80127 936.15777,162.10408 C937.29813,163.63461 939.90348,162.14051 938.74818,160.58992 C933.19187,153.13256 923.62635,148.74464 915.59145,144.50608 C906.047225,139.497155 896.156013,135.17927 885.99395,131.58566 C884.17179,130.93684 883.38756,133.83441 885.19643,134.47849 Z" id="Path" fill="#F1F1F1"></path>
            <path d="M943.87586,129.13587 C933.96219,133.37514 925.56328,141.54287 916.70386,147.59487 C907.11428,154.14573 897.239317,160.24219 887.07897,165.88425 C885.39311,166.82565 886.90407,169.41785 888.59313,168.47466 C898.731877,162.813107 908.60684,156.716647 918.21802,150.18528 C927.07565,144.13443 935.47882,135.96446 945.39002,131.72628 C947.15981,130.96949 945.63319,128.3844 943.87587,129.13587 L943.87586,129.13587 Z" id="Path" fill="#F1F1F1"></path>
            <path d="M687.6469,130.58697 C707.86966,130.894623 728.09169,130.81399 748.31299,130.34507 C750.24038,130.30038 750.24744,127.30021 748.31299,127.34507 C728.093317,127.813983 707.871287,127.894617 687.6469,127.58697 C686.838688,127.614971 686.197969,128.278273 686.197969,129.08697 C686.197969,129.895667 686.838688,130.558969 687.6469,130.58697 Z" id="Path" fill="#F1F1F1"></path>
            <path d="M689.34782,144.18838 C710.137293,144.520087 730.92606,144.430803 751.71412,143.92053 C753.64128,143.87322 753.64856,140.87304 751.71412,140.92053 C730.928273,141.430803 710.139507,141.520087 689.34782,141.18838 C687.41663,141.15756 687.41609,144.15756 689.34782,144.18838 Z" id="Path" fill="#F1F1F1"></path>
            <path d="M687.0724,158.87437 L746.03751,156.13616 C747.95986,156.0469 747.97077,153.04639 746.03751,153.13616 L687.0724,155.87437 C685.15005,155.96364 685.13914,158.96414 687.0724,158.87437 Z" id="Path" fill="#F1F1F1"></path>
            <path d="M778.92126,116.49117 L835.04726,116.49117 C835.855472,116.463169 836.496191,115.799867 836.496191,114.99117 C836.496191,114.182473 835.855472,113.519171 835.04726,113.49117 L778.92126,113.49117 C778.113048,113.519171 777.472329,114.182473 777.472329,114.99117 C777.472329,115.799867 778.113048,116.463169 778.92126,116.49117 L778.92126,116.49117 Z" id="Path" fill="#F1F1F1"></path>
            <path d="M832.58849,99.33965 L841.35749,107.3437 C842.36033,108.25907 845.11884,110.1489 845.74197,111.3457 C847.03034,113.82022 845.64605,113.2557 843.43839,114.11317 C838.013715,116.271828 833.015029,119.375764 828.6747,123.28069 C827.22333,124.55962 829.35181,126.67463 830.79602,125.40201 C834.754505,121.844213 839.302433,119.003089 844.23591,117.00601 C846.00491,116.30621 849.36111,115.8964 850.20161,113.78921 C851.2303,111.21021 847.95404,109.30721 846.4018,107.89037 L834.7098,97.2183 C833.28628,95.91894 831.1588,98.03465 832.58848,99.33962 L832.58849,99.33965 Z" id="Path" fill="#F1F1F1"></path>
            <path d="M696.3789,216.44981 L737.68256,216.44981 C740.5012,200.155247 740.5012,183.497703 737.68256,167.20314 L696.3789,167.20314 C701.03208,183.288947 701.03208,200.364003 696.3789,216.44981 L696.3789,216.44981 Z" id="Path" fill="#6C63FF"></path>
            <path d="M524.3789,179.44981 L565.68256,179.44981 C568.5012,163.155247 568.5012,146.497703 565.68256,130.20314 L524.3789,130.20314 C529.03208,146.288947 529.03208,163.364003 524.3789,179.44981 Z" id="Path" fill="#6C63FF"></path>
            <path d="M785.3789,71.44981 L826.68256,71.44981 C829.5012,55.1552473 829.5012,38.4977027 826.68256,22.20314 L785.3789,22.20314 C790.03208,38.2889472 790.03208,55.3640028 785.3789,71.44981 L785.3789,71.44981 Z" id="Path" fill="#6C63FF"></path>
        </g>
    </g>
</svg>
