<svg version="1" xmlns="http://www.w3.org/2000/svg" width="666.667" height="666.667" viewBox="0 0 500.000000 500.000000"><path d="M263 114.7c-10.7 16-36.7 44-55.8 60.2-11.6 9.8-34.4 27.3-34.9 26.7-.2-.2 4.2-14.9 9.8-32.7 7.7-24.9 10.2-34.2 10.6-40 .9-12.3-3-16.9-14.2-16.9-15 0-37.2 14.7-48.4 31.9-4.7 7.4-6.2 12.1-6.2 19.7 0 9.3 5.2 14.9 15 16.1l4.9.6-1.4-5.4c-1.8-6.7-1.7-8.1.1-15.4 2.5-9.8 8.9-22 14.7-28.2 10.1-10.7 21.8-12.5 21.8-3.3 0 1.5-2.5 9.7-5.6 18.1-8.2 22.5-22.2 62.8-38.4 109.9-7.9 22.8-16.4 46.7-19 53l-4.8 11.5 3.2.3c4.1.5 14.4-1.6 17.7-3.5 1.5-.9 3.4-2.8 4.3-4.4.9-1.5 7.1-20.3 13.6-41.6 6.6-21.3 12.3-39.5 12.6-40.3.7-1.8 0-2.8 9 13 3.6 6.3 11.2 18.5 16.9 27 23.4 35.1 43.2 54.9 54.8 55 3.2 0 8.2-2.3 11.5-5.4 4.9-4.4 4.7-5-2.6-10.7-22.4-17.6-41.5-37-56.7-57.4-12.9-17.3-24-34.6-22.9-35.3.6-.4 4.2-2.7 8-5.2 21.6-13.9 52-36.9 67.1-50.6 19.2-17.5 26.2-33.3 20.3-46.2-1-2.3-2-4.2-2.2-4.2-.2 0-1.4 1.7-2.8 3.7zM385.5 113.9c-22.7 6.6-46.1 26.7-65.5 56.1-11.9 18.2-21.9 41.5-25.9 60.6-8.8 42.2-.1 74.6 24 89.7 9.6 5.9 26.2 7.4 39.9 3.6 14.9-4.1 33.3-15.9 45.6-29.2 16.7-18.3 30.7-45.6 36.8-72.1 4.5-19.3 6-51.4 3.1-67.7-4.8-27.6-14.4-35.3-32.5-26.3-17.2 8.6-36 32.7-36.2 46.2 0 5.6 1.2 8 5.6 10.9 5.9 4 6.4 3.7 9.6-6.1 5.8-18.1 18.8-39.9 26.9-45.3 11.3-7.6 18.1 5.7 18.1 35.1 0 39.9-14.2 86.1-35.6 116.2-15.8 22.3-31.8 32.1-51.2 31.2-16.9-.7-25.4-8.7-31.4-29.5-2-6.7-2.3-10.1-2.3-23.8.1-16.9 1.2-24.8 6.1-41.7 13.5-46.6 47.7-92.7 77.2-103.9 3.1-1.1 8.6-2.4 12.2-2.7 6.4-.5 6.4-.6 3.5-1.8-4.4-1.9-20.7-1.6-28 .5z"/></svg>