<?xml version="1.0" encoding="UTF-8"?>
<svg width="548px" height="181px" viewBox="0 0 548 181" version="1.1" xmlns="http://www.w3.org/2000/svg" xmlns:xlink="http://www.w3.org/1999/xlink">
    <!-- Generator: Sketch 54.1 (76490) - https://sketchapp.com -->
    <title>Path</title>
    <desc>Created with Sketch.</desc>
    <g id="🕶-Persona" stroke="none" stroke-width="1" fill="none" fill-rule="evenodd">
        <g id="undraw_moving_forward_lhhd-(1)" transform="translate(-380.000000, -443.000000)" fill="#6C63FF" fill-rule="nonzero">
            <path d="M923.58,540.38 L906,548.84 L764,617.3 L751.47,623.3 C749.734161,624.121372 747.737107,624.193545 745.946506,623.499616 C744.155905,622.805687 742.729021,621.406603 742,619.63 C741.667598,618.807069 741.497802,617.927526 741.5,617.04 L741.5,576.6 C741.500098,572.753449 738.396453,569.627475 734.55,569.6 L387.95,569.6 C384.103449,569.600098 380.977475,566.496453 380.95,562.65 L380.95,505.55 C380.95,501.684007 384.084007,498.55 387.95,498.55 L734.55,498.55 C738.377039,498.52276 741.47276,495.427039 741.5,491.6 L741.5,450.26 C741.497802,449.372474 741.667598,448.492931 742,447.67 C742.73253,445.891712 744.164455,444.493152 745.959517,443.802743 C747.754578,443.112335 749.75463,443.190904 751.49,444.02 L764,450.11 L906,519.29 L923.61,527.84 C925.988606,529.027818 927.488975,531.460609 927.482614,534.119301 C927.476254,536.777992 925.964263,539.203577 923.58,540.38 L923.58,540.38 Z" id="Path"></path>
        </g>
    </g>
</svg>